<svg width="610" height="674" viewBox="0 0 610 674" fill="none" xmlns="http://www.w3.org/2000/svg">
<path d="M609.985 436.078C609.982 430.412 608.77 425.404 606.318 421.107C603.909 416.881 600.302 413.339 595.464 410.539C555.525 387.522 515.549 364.576 475.623 341.536C464.859 335.325 454.423 335.552 443.739 341.852C427.843 351.222 348.254 396.796 324.537 410.526C314.77 416.177 310.018 424.826 310.015 436.068C310 482.355 310.015 528.642 310 574.931C310.002 580.473 311.163 585.383 313.507 589.616C315.917 593.97 319.575 597.609 324.524 600.473C348.242 614.202 427.842 659.774 443.735 669.146C454.423 675.45 464.859 675.675 475.627 669.462C515.553 646.42 555.533 623.475 595.477 600.459C600.427 597.596 604.084 593.955 606.494 589.604C608.834 585.372 609.998 580.462 610 574.918C610 574.918 610 482.367 609.985 436.078Z" fill="#5C8DBC"/>
<path d="M460.459 505.049L313.507 589.616C315.917 593.97 319.575 597.609 324.525 600.473C348.242 614.203 427.842 659.774 443.735 669.146C454.423 675.45 464.86 675.675 475.627 669.462C515.553 646.421 555.533 623.476 595.477 600.459C600.427 597.596 604.084 593.955 606.494 589.605L460.459 505.049Z" fill="#1A4674"/>
<path d="M416.934 530.098C425.485 545.019 441.56 555.082 460 555.082C478.554 555.082 494.721 544.891 503.228 529.811L460.459 505.049L416.934 530.098Z" fill="#1A4674"/>
<path d="M609.985 436.078C609.982 430.412 608.77 425.405 606.318 421.107L460.459 505.048L606.494 589.604C608.834 585.372 609.998 580.462 610 574.919C610 574.919 610 482.367 609.985 436.078Z" fill="#1B598E"/>
<path d="M601.955 511.093H590.543V522.501H579.129V511.093H567.719V499.688H579.129V488.282H590.543V499.688H601.955V511.093Z" fill="white"/>
<path d="M560.314 511.093H548.904V522.501H537.492V511.093H526.081V499.688H537.492V488.282H548.904V499.688H560.314V511.093Z" fill="white"/>
<path d="M461.42 394.017C502.671 394.017 538.687 416.409 557.978 449.691L557.79 449.371L509.255 477.303C499.693 461.12 482.162 450.2 462.053 449.975L461.42 449.971C430.754 449.971 405.892 474.819 405.892 505.469C405.892 515.492 408.566 524.887 413.216 533.003C422.787 549.703 440.78 560.967 461.42 560.967C482.187 560.967 500.283 549.56 509.805 532.681L509.574 533.086L558.036 561.146C538.956 594.147 503.434 616.47 462.662 616.915L461.42 616.922C420.038 616.922 383.92 594.392 364.678 560.933C355.284 544.599 349.909 525.662 349.909 505.469C349.909 443.916 399.833 394.017 461.42 394.017Z" fill="white"/>
<path d="M325.889 175.7V175.461V138.909H333.906V178.512C334.278 181.704 334.004 184.938 333.099 188.021C332.195 191.104 330.679 193.974 328.641 196.459C324.854 199.725 320.002 201.492 315.001 201.424L314.164 195.442C317.389 195.444 320.501 194.25 322.898 192.092C325.052 189.579 325.889 186.169 325.889 175.7ZM385.673 170.981C385.673 175.468 385.673 179.476 386.032 182.946H378.913L378.434 175.827C376.945 178.346 374.816 180.426 372.262 181.855C369.709 183.284 366.823 184.011 363.897 183.963C356.958 183.963 348.702 180.194 348.702 164.82V139.275H356.718V163.204C356.718 171.52 359.291 177.083 366.529 177.083C368.019 177.099 369.496 176.818 370.875 176.255C372.254 175.693 373.507 174.861 374.56 173.807C375.613 172.754 376.445 171.502 377.008 170.123C377.571 168.743 377.852 167.266 377.836 165.777V138.976H385.852V170.742L385.673 170.981ZM400.868 153.508C400.868 147.944 400.868 143.398 400.509 139.27H407.688L408.047 146.748C409.646 144.046 411.949 141.829 414.709 140.333C417.47 138.837 420.584 138.118 423.721 138.253C434.369 138.253 442.386 147.166 442.386 160.447C442.386 176.121 432.754 183.898 422.345 183.898C419.681 184.017 417.031 183.446 414.652 182.241C412.273 181.036 410.245 179.237 408.765 177.018V200.948H400.868V153.687V153.508ZM408.765 165.173C408.787 166.259 408.907 167.34 409.124 168.404C409.803 171.06 411.348 173.414 413.515 175.094C415.682 176.773 418.347 177.682 421.089 177.676C429.524 177.676 434.489 170.797 434.489 160.806C434.489 152.072 429.823 144.594 421.388 144.594C418.05 144.867 414.926 146.349 412.602 148.761C410.278 151.173 408.914 154.349 408.765 157.695V165.173ZM456.668 139.23L466.3 165.014C467.317 167.885 468.394 171.355 469.112 173.928C469.949 171.295 470.847 167.945 471.923 164.834L480.658 139.23H489.093L477.128 170.338C471.146 185.294 467.496 193.011 461.993 197.677C459.221 200.209 455.841 201.982 452.182 202.822L450.207 196.122C452.766 195.281 455.141 193.962 457.207 192.233C460.125 189.855 462.441 186.822 463.967 183.38C464.293 182.784 464.516 182.136 464.625 181.465C464.557 180.743 464.375 180.037 464.087 179.371L447.815 139.11H456.549L456.668 139.23ZM510.374 126.679V139.242H521.86V145.224H510.374V168.795C510.374 174.179 511.929 177.29 516.356 177.29C517.929 177.316 519.497 177.135 521.023 176.751L521.381 182.734C519.095 183.526 516.681 183.891 514.262 183.811C512.66 183.911 511.056 183.663 509.559 183.085C508.061 182.507 506.707 181.611 505.588 180.46C503.151 177.201 502.04 173.14 502.477 169.094V145.165H495.657V139.182H502.597V128.534L510.374 126.679ZM536.627 162.487C536.465 164.516 536.745 166.556 537.448 168.466C538.151 170.376 539.261 172.111 540.7 173.55C542.139 174.989 543.874 176.099 545.784 176.802C547.694 177.505 549.734 177.785 551.763 177.623C555.866 177.714 559.943 176.94 563.727 175.349L565.103 181.332C560.46 183.245 555.467 184.162 550.446 184.024C547.52 184.224 544.585 183.789 541.842 182.748C539.099 181.708 536.614 180.086 534.557 177.995C532.5 175.904 530.919 173.392 529.924 170.633C528.929 167.874 528.542 164.932 528.79 162.009C528.79 148.848 536.627 138.438 549.429 138.438C563.787 138.438 567.376 151.001 567.376 159.018C567.453 160.253 567.453 161.491 567.376 162.727H536.448L536.627 162.487ZM560.078 156.505C560.309 154.906 560.194 153.275 559.742 151.724C559.289 150.173 558.51 148.736 557.455 147.512C556.401 146.287 555.096 145.303 553.629 144.625C552.162 143.948 550.567 143.592 548.951 143.583C545.664 143.821 542.584 145.278 540.316 147.668C538.047 150.059 536.753 153.21 536.687 156.505H560.078ZM579.54 152.833C579.54 147.689 579.54 143.262 579.181 139.194H586.36V147.748H586.718C587.472 145.108 589.029 142.768 591.173 141.053C593.317 139.337 595.942 138.332 598.683 138.177C599.438 138.078 600.202 138.078 600.956 138.177V145.655C600.042 145.549 599.119 145.549 598.204 145.655C595.489 145.76 592.904 146.85 590.934 148.721C588.963 150.593 587.741 153.118 587.496 155.825C587.272 157.049 587.152 158.289 587.137 159.534V182.805H579.24V152.893L579.54 152.833Z" fill="#4E4E4E"/>
<path d="M576.026 19.0541C576.272 23.0731 575.316 27.0743 573.28 30.5478C571.243 34.0215 568.219 36.8103 564.592 38.5591C560.965 40.3078 556.9 40.9374 552.914 40.3676C548.928 39.7977 545.202 38.0542 542.21 35.3593C539.219 32.6643 537.097 29.1398 536.116 25.2348C535.134 21.3298 535.337 17.2209 536.699 13.4318C538.061 9.64267 540.52 6.34469 543.763 3.95803C547.006 1.57137 550.886 0.204062 554.909 0.0302742C557.546 -0.114858 560.186 0.262829 562.677 1.14162C565.168 2.0204 567.461 3.38295 569.424 5.1509C571.386 6.91886 572.98 9.05734 574.113 11.4434C575.246 13.8294 575.896 16.4159 576.026 19.0541Z" fill="#767677"/>
<path d="M457.734 253.358C403.893 253.358 356.573 234.035 332.105 205.499C341.599 231.17 358.729 253.317 381.189 268.958C403.65 284.6 430.364 292.984 457.734 292.984C485.104 292.984 511.818 284.6 534.279 268.958C556.74 253.317 573.87 231.17 583.364 205.499C558.956 234.035 511.814 253.358 457.734 253.358Z" fill="#F37726"/>
<path d="M457.734 67.7979C511.575 67.7979 558.896 87.1209 583.364 115.657C573.87 89.9855 556.74 67.8388 534.279 52.1975C511.818 36.5563 485.104 28.1714 457.734 28.1714C430.364 28.1714 403.65 36.5563 381.189 52.1975C358.729 67.8388 341.599 89.9855 332.105 115.657C356.573 87.0611 403.654 67.7979 457.734 67.7979Z" fill="#F37726"/>
<path d="M383.615 308.889C383.931 313.951 382.732 318.993 380.173 323.371C377.613 327.75 373.807 331.268 369.241 333.476C364.675 335.684 359.555 336.483 354.533 335.771C349.511 335.059 344.815 332.868 341.043 329.477C337.271 326.086 334.594 321.649 333.352 316.732C332.111 311.814 332.361 306.638 334.072 301.863C335.783 297.088 338.876 292.931 342.958 289.921C347.041 286.91 351.926 285.183 356.993 284.959C360.313 284.782 363.635 285.26 366.769 286.367C369.904 287.473 372.79 289.187 375.262 291.409C377.734 293.631 379.744 296.319 381.177 299.318C382.611 302.317 383.439 305.569 383.615 308.889Z" fill="#9E9E9E"/>
<path d="M338.224 61.2947C335.323 61.3748 332.463 60.5954 330.003 59.0544C327.544 57.5133 325.595 55.2795 324.402 52.6339C323.209 49.9883 322.825 47.0489 323.298 44.1854C323.771 41.322 325.08 38.6623 327.06 36.5409C329.041 34.4195 331.604 32.931 334.429 32.2627C337.253 31.5944 340.212 31.7761 342.933 32.7849C345.654 33.7937 348.016 35.5846 349.723 37.9324C351.429 40.2803 352.403 43.0801 352.522 45.9799C352.635 49.901 351.197 53.7085 348.52 56.5758C345.843 59.4431 342.143 61.1388 338.224 61.2947Z" fill="#616262"/>
<path d="M299.985 436.078C299.982 430.412 298.77 425.404 296.318 421.107C293.909 416.881 290.302 413.339 285.464 410.539C245.525 387.522 205.549 364.576 165.623 341.536C154.859 335.325 144.423 335.552 133.739 341.852C117.843 351.222 38.2539 396.796 14.5374 410.526C4.77029 416.177 0.0176069 424.826 0.0152593 436.068C0 482.356 0.0152593 528.642 0 574.931C0 580.474 1.16323 585.383 3.50729 589.616C5.91708 593.97 9.57462 597.609 14.5245 600.473C38.2421 614.203 117.842 659.774 133.735 669.146C144.423 675.45 154.859 675.675 165.627 669.462C205.553 646.42 245.533 623.475 285.477 600.459C290.427 597.596 294.084 593.955 296.494 589.604C298.834 585.372 300 580.462 300 574.919C300 574.919 300 482.367 299.985 436.078Z" fill="#A179DC"/>
<path d="M150.459 505.049L3.50732 589.616C5.91712 593.97 9.57465 597.609 14.5245 600.473C38.2422 614.203 117.842 659.774 133.735 669.146C144.423 675.45 154.86 675.675 165.627 669.462C205.553 646.421 245.533 623.476 285.477 600.459C290.427 597.596 294.084 593.955 296.494 589.605L150.459 505.049Z" fill="#280068"/>
<path d="M299.985 436.078C299.982 430.412 298.77 425.405 296.318 421.107L150.459 505.048L296.494 589.604C298.834 585.372 299.997 580.462 300 574.919C300 574.919 300 482.367 299.985 436.078Z" fill="#390091"/>
<path d="M236.98 473.434V489.241H252.795V473.434H260.702V489.241H276.518V497.145H260.702V512.952H276.518V520.855H260.702V536.662H252.795V520.855H236.98V536.662H229.072V520.855H213.257V512.952H229.072V497.145H213.257V489.241H229.072V473.434H236.98ZM252.795 497.145H236.98V512.952H252.795V497.145Z" fill="white"/>
<path d="M150.782 394.047C192.033 394.047 228.049 416.439 247.34 449.722L247.152 449.401L198.617 477.333C189.055 461.15 171.524 450.23 151.415 450.005L150.782 450.001C120.116 450.001 95.2541 474.849 95.2541 505.499C95.2541 515.522 97.9278 524.918 102.577 533.033C112.149 549.733 130.141 560.998 150.782 560.998C171.549 560.998 189.645 549.59 199.167 532.711L198.936 533.116L247.398 561.177C228.318 594.178 192.796 616.5 152.024 616.945L150.782 616.952C109.4 616.952 73.2817 594.422 54.0395 560.963C44.6456 544.629 39.2708 525.692 39.2708 505.499C39.2708 443.947 89.1948 394.047 150.782 394.047Z" fill="white"/>
<path d="M148.919 19C72.7599 19 77.5158 52.027 77.5158 52.027L77.6007 86.2426H150.277V96.5158H48.7339C48.7339 96.5158 0 90.9889 0 167.834C-5.43182e-06 244.678 42.536 241.953 42.536 241.953H67.9218V206.294C67.9218 206.294 66.5534 163.758 109.779 163.758H181.861C181.861 163.758 222.359 164.413 222.359 124.618V58.8192C222.359 58.8192 228.508 19 148.919 19ZM108.845 42.0085C116.075 42.0085 121.92 47.8527 121.92 55.0835C121.92 62.3142 116.075 68.1584 108.845 68.1584C101.614 68.1584 95.7697 62.3142 95.7697 55.0835C95.7697 47.8527 101.614 42.0085 108.845 42.0085Z" fill="url(#paint0_linear)"/>
<path d="M151.082 317.438C227.24 317.438 222.484 284.411 222.484 284.411L222.399 250.195H149.723V239.922H251.266C251.266 239.922 300 245.449 300 168.604C300 91.7595 257.464 94.4846 257.464 94.4846H232.078V130.144C232.078 130.144 233.447 172.68 190.222 172.68H118.14C118.14 172.68 77.6411 172.025 77.6411 211.82V277.619C77.6411 277.619 71.4924 317.438 151.082 317.438ZM191.155 294.429C183.925 294.429 178.081 288.585 178.081 281.354C178.081 274.124 183.925 268.28 191.155 268.28C198.386 268.28 204.23 274.124 204.23 281.354C204.23 288.585 198.386 294.429 191.155 294.429Z" fill="url(#paint1_linear)"/>
<defs>
<linearGradient id="paint0_linear" x1="28.8306" y1="45.8437" x2="177.5" y2="193.03" gradientUnits="userSpaceOnUse">
<stop stop-color="#387EB8"/>
<stop offset="1" stop-color="#366994"/>
</linearGradient>
<linearGradient id="paint1_linear" x1="120.084" y1="140.357" x2="279.739" y2="291.284" gradientUnits="userSpaceOnUse">
<stop stop-color="#FFE052"/>
<stop offset="1" stop-color="#FFC331"/>
</linearGradient>
</defs>
</svg>
