<svg width="256" height="288" viewBox="0 0 256 288" fill="none" xmlns="http://www.w3.org/2000/svg">
<path d="M255.569 84.4524C255.567 79.6224 254.534 75.3544 252.445 71.6914C250.393 68.0894 247.32 65.0704 243.198 62.6834C209.173 43.0644 175.115 23.5054 141.101 3.86638C131.931 -1.42762 123.04 -1.23462 113.938 4.13538C100.395 12.1224 32.59 50.9694 12.385 62.6724C4.064 67.4894 0.015 74.8614 0.013 84.4434C0 123.898 0.013 163.352 0 202.808C0 207.532 0.991 211.717 2.988 215.325C5.041 219.036 8.157 222.138 12.374 224.579C32.58 236.282 100.394 275.126 113.934 283.115C123.04 288.488 131.931 288.68 141.104 283.384C175.119 263.744 209.179 244.186 243.209 224.567C247.426 222.127 250.542 219.023 252.595 215.315C254.589 211.707 255.582 207.522 255.582 202.797C255.582 202.797 255.582 123.908 255.569 84.4524Z" fill="#A179DC"/>
<path d="M128.182 143.241L2.98804 215.325C5.04104 219.036 8.15704 222.138 12.374 224.579C32.58 236.282 100.394 275.126 113.934 283.115C123.04 288.488 131.931 288.68 141.104 283.384C175.119 263.744 209.179 244.186 243.209 224.567C247.426 222.127 250.542 219.023 252.595 215.315L128.182 143.241Z" fill="#280068"/>
<path d="M255.569 84.4524C255.567 79.6224 254.534 75.3544 252.445 71.6914L128.182 143.241L252.595 215.315C254.589 211.707 255.58 207.522 255.582 202.797C255.582 202.797 255.582 123.908 255.569 84.4524Z" fill="#390091"/>
<path d="M201.892 116.294V129.768H215.366V116.294H222.103V129.768H235.577V136.504H222.103V149.978H235.577V156.715H222.103V170.189H215.366V156.715H201.892V170.189H195.155V156.715H181.682V149.978H195.155V136.504H181.682V129.768H195.155V116.294H201.892ZM215.366 136.504H201.892V149.978H215.366V136.504Z" fill="white"/>
<path d="M128.457 48.626C163.601 48.626 194.284 67.7123 210.719 96.082L210.558 95.809L169.21 119.617C161.063 105.824 146.128 96.5152 128.996 96.3235L128.457 96.3204C102.331 96.3204 81.1507 117.5 81.1507 143.625C81.1507 152.169 83.4284 160.178 87.3896 167.095C95.5437 181.33 110.873 190.931 128.457 190.931C146.15 190.931 161.566 181.208 169.678 166.821L169.481 167.166L210.768 191.084C194.513 219.214 164.25 238.241 129.515 238.62L128.457 238.626C93.2022 238.626 62.4315 219.422 46.0382 190.902C38.0352 176.979 33.4562 160.838 33.4562 143.625C33.4562 91.1594 75.9884 48.626 128.457 48.626Z" fill="white"/>
<path d="M231.42 162.859C230.211 163.442 228.857 163.652 227.529 163.462C226.201 163.272 224.959 162.691 223.963 161.792L223.962 161.792C222.966 160.894 222.259 159.718 221.932 158.416C221.604 157.114 221.672 155.743 222.126 154.48C222.58 153.216 223.399 152.116 224.48 151.32C225.56 150.524 226.853 150.069 228.193 150.011L228.193 150.011L228.205 150.01C229.082 149.962 229.96 150.087 230.789 150.38L230.789 150.38C231.617 150.672 232.38 151.126 233.033 151.714C233.685 152.303 234.216 153.015 234.593 153.809C234.97 154.603 235.186 155.465 235.229 156.343L235.229 156.343L235.23 156.355C235.312 157.695 234.993 159.03 234.314 160.188L234.314 160.188C233.636 161.346 232.628 162.276 231.42 162.859ZM231.42 162.859L231.854 163.76M231.42 162.859L231.854 163.76M231.854 163.76C233.242 163.091 234.398 162.023 235.177 160.693L223.887 150.515C222.646 151.429 221.706 152.691 221.185 154.142C220.664 155.592 220.586 157.165 220.962 158.66C221.337 160.154 222.149 161.504 223.293 162.535C224.437 163.567 225.863 164.234 227.387 164.452C228.912 164.67 230.467 164.429 231.854 163.76Z" fill="white" stroke="black" stroke-width="2"/>
<path d="M145.931 232.125C156.157 241.181 172.646 246.983 190.98 246.983C209.384 246.983 225.82 241.188 236.021 232.141C232.278 239.725 226.669 246.268 219.687 251.134C211.263 257.004 201.245 260.151 190.98 260.151C180.715 260.151 170.696 257.004 162.272 251.134L161.701 251.954L162.272 251.134C155.285 246.265 149.674 239.716 145.931 232.125Z" fill="#FF9431" stroke="black" stroke-width="2"/>
<path d="M236.029 188.809C225.802 179.754 209.314 173.952 190.98 173.952C172.572 173.952 156.151 179.731 145.939 188.793C149.682 181.21 155.29 174.667 162.272 169.801L161.701 168.981L162.272 169.801C170.696 163.931 180.715 160.784 190.98 160.784C201.245 160.784 211.263 163.931 219.687 169.801C226.674 174.67 232.286 181.219 236.029 188.809Z" fill="#FF9431" stroke="black" stroke-width="2"/>
<path d="M161.63 267.292L161.63 267.292L161.63 267.302C161.739 269.041 161.327 270.774 160.448 272.279C159.569 273.783 158.262 274.992 156.695 275.751C155.127 276.51 153.369 276.784 151.645 276.539C149.921 276.295 148.308 275.542 147.013 274.377C145.718 273.212 144.798 271.687 144.372 269.997C143.946 268.307 144.032 266.528 144.619 264.887C145.207 263.246 146.269 261.818 147.671 260.783C149.072 259.749 150.75 259.155 152.489 259.079L152.489 259.079L152.499 259.078C153.637 259.017 154.777 259.181 155.852 259.561C156.927 259.941 157.916 260.529 158.764 261.292C159.612 262.055 160.302 262.977 160.794 264.007L160.794 264.007C161.285 265.036 161.569 266.153 161.63 267.292Z" fill="white" stroke="black" stroke-width="2"/>
<path d="M141.727 163.67L141.727 163.67C142.35 163.002 143.156 162.533 144.045 162.323L144.045 162.323C144.933 162.113 145.863 162.17 146.719 162.487C147.575 162.805 148.318 163.369 148.855 164.108L148.855 164.108C149.391 164.845 149.697 165.725 149.735 166.636C149.77 167.871 149.316 169.071 148.473 169.975L148.473 169.975C147.63 170.878 146.466 171.413 145.232 171.464C144.322 171.488 143.424 171.242 142.653 170.758C141.879 170.273 141.266 169.57 140.89 168.737C140.515 167.904 140.394 166.978 140.543 166.077C140.692 165.175 141.104 164.338 141.727 163.67Z" fill="white" stroke="black" stroke-width="2"/>
</svg>
