<svg width="256" height="288" viewBox="0 0 256 288" fill="none" xmlns="http://www.w3.org/2000/svg">
<g clip-path="url(#clip0)">
<path d="M255.569 84.4524C255.567 79.6224 254.534 75.3544 252.445 71.6914C250.393 68.0894 247.32 65.0704 243.198 62.6834C209.173 43.0644 175.115 23.5054 141.101 3.86638C131.931 -1.42762 123.04 -1.23462 113.938 4.13538C100.395 12.1224 32.59 50.9694 12.385 62.6724C4.064 67.4894 0.015 74.8614 0.013 84.4434C0 123.898 0.013 163.352 0 202.808C0 207.532 0.991 211.717 2.988 215.325C5.041 219.036 8.157 222.138 12.374 224.579C32.58 236.282 100.394 275.126 113.934 283.115C123.04 288.488 131.931 288.68 141.104 283.384C175.119 263.744 209.179 244.186 243.209 224.567C247.426 222.127 250.542 219.023 252.595 215.315C254.589 211.707 255.582 207.522 255.582 202.797C255.582 202.797 255.582 123.908 255.569 84.4524Z" fill="#A179DC"/>
<path d="M128.182 143.241L2.98804 215.325C5.04104 219.036 8.15704 222.138 12.374 224.579C32.58 236.282 100.394 275.126 113.934 283.115C123.04 288.488 131.931 288.68 141.104 283.384C175.119 263.744 209.179 244.186 243.209 224.567C247.426 222.127 250.542 219.023 252.595 215.315L128.182 143.241Z" fill="#280068"/>
<path d="M255.569 84.4524C255.567 79.6224 254.534 75.3544 252.445 71.6914L128.182 143.241L252.595 215.315C254.589 211.707 255.58 207.522 255.582 202.797C255.582 202.797 255.582 123.908 255.569 84.4524Z" fill="#390091"/>
<path d="M201.892 116.294V129.768H215.366V116.294H222.103V129.768H235.577V136.504H222.103V149.978H235.577V156.715H222.103V170.189H215.366V156.715H201.892V170.189H195.155V156.715H181.682V149.978H195.155V136.504H181.682V129.768H195.155V116.294H201.892ZM215.366 136.504H201.892V149.978H215.366V136.504Z" fill="white"/>
<path d="M128.457 48.626C163.601 48.626 194.284 67.7123 210.719 96.082L210.558 95.809L169.21 119.617C161.063 105.824 146.128 96.5152 128.996 96.3235L128.457 96.3204C102.331 96.3204 81.1507 117.5 81.1507 143.625C81.1507 152.169 83.4284 160.178 87.3896 167.095C95.5437 181.33 110.873 190.931 128.457 190.931C146.15 190.931 161.566 181.208 169.678 166.821L169.481 167.166L210.768 191.084C194.513 219.214 164.25 238.241 129.515 238.62L128.457 238.626C93.2022 238.626 62.4315 219.422 46.0382 190.902C38.0352 176.979 33.4562 160.838 33.4562 143.625C33.4562 91.1594 75.9884 48.626 128.457 48.626Z" fill="white"/>
<g filter="url(#filter0_d)">
<path d="M245.229 166.343L245.229 166.343L245.23 166.355C245.312 167.695 244.993 169.03 244.314 170.188L244.314 170.188C243.636 171.346 242.628 172.276 241.42 172.859C240.211 173.442 238.857 173.652 237.529 173.462C236.201 173.272 234.959 172.691 233.963 171.792L233.962 171.792C232.966 170.894 232.259 169.718 231.932 168.416C231.604 167.114 231.672 165.743 232.126 164.48C232.58 163.216 233.399 162.116 234.48 161.32C235.56 160.524 236.853 160.069 238.193 160.011L238.193 160.011L238.205 160.01C239.082 159.962 239.96 160.087 240.789 160.38L240.789 160.38C241.617 160.672 242.38 161.126 243.033 161.714C243.685 162.303 244.216 163.015 244.593 163.809C244.97 164.603 245.186 165.465 245.229 166.343Z" fill="white" stroke="black" stroke-width="2"/>
<path d="M246.021 242.141C242.278 249.725 236.669 256.268 229.687 261.134C221.263 267.004 211.245 270.151 200.98 270.151C190.715 270.151 180.696 267.004 172.272 261.134L171.701 261.954L172.272 261.134C165.285 256.265 159.674 249.716 155.931 242.125C166.157 251.181 182.646 256.983 200.98 256.983C219.384 256.983 235.82 251.188 246.021 242.141Z" fill="#FF9431" stroke="black" stroke-width="2"/>
<path d="M155.939 198.793C159.682 191.21 165.29 184.667 172.272 179.801L171.701 178.981L172.272 179.801C180.696 173.931 190.715 170.784 200.98 170.784C211.245 170.784 221.263 173.931 229.687 179.801C236.674 184.67 242.286 191.219 246.029 198.809C235.802 189.754 219.314 183.952 200.98 183.952C182.572 183.952 166.151 189.731 155.939 198.793Z" fill="#FF9431" stroke="black" stroke-width="2"/>
<path d="M171.63 277.292L171.63 277.292L171.63 277.302C171.739 279.041 171.327 280.774 170.448 282.279C169.569 283.783 168.262 284.992 166.695 285.751C165.127 286.51 163.369 286.784 161.645 286.539C159.921 286.295 158.308 285.542 157.013 284.377C155.718 283.212 154.798 281.687 154.372 279.997C153.946 278.307 154.032 276.528 154.619 274.887C155.207 273.246 156.269 271.818 157.671 270.783C159.072 269.749 160.75 269.155 162.489 269.079L162.489 269.079L162.499 269.078C163.637 269.017 164.777 269.181 165.852 269.561C166.927 269.941 167.916 270.529 168.764 271.292C169.612 272.055 170.302 272.977 170.794 274.007L170.794 274.007C171.285 275.036 171.569 276.153 171.63 277.292Z" fill="white" stroke="black" stroke-width="2"/>
<path d="M151.727 173.67L151.727 173.67C152.35 173.002 153.156 172.533 154.045 172.323L154.045 172.323C154.933 172.113 155.863 172.17 156.719 172.487C157.575 172.805 158.318 173.369 158.855 174.108L158.855 174.108C159.391 174.845 159.697 175.725 159.735 176.636C159.77 177.871 159.316 179.071 158.473 179.975L158.473 179.975C157.63 180.878 156.466 181.413 155.232 181.464C154.322 181.488 153.424 181.242 152.653 180.758C151.879 180.273 151.266 179.57 150.89 178.737C150.515 177.904 150.394 176.978 150.543 176.077C150.692 175.175 151.104 174.338 151.727 173.67Z" fill="white" stroke="black" stroke-width="2"/>
</g>
</g>
<defs>
<filter id="filter0_d" x="146" y="159" width="119" height="138" filterUnits="userSpaceOnUse" color-interpolation-filters="sRGB">
<feFlood flood-opacity="0" result="BackgroundImageFix"/>
<feColorMatrix in="SourceAlpha" type="matrix" values="0 0 0 0 0 0 0 0 0 0 0 0 0 0 0 0 0 0 127 0"/>
<feOffset dx="5" dy="5"/>
<feGaussianBlur stdDeviation="2"/>
<feColorMatrix type="matrix" values="0 0 0 0 0 0 0 0 0 0 0 0 0 0 0 0 0 0 0.5 0"/>
<feBlend mode="normal" in2="BackgroundImageFix" result="effect1_dropShadow"/>
<feBlend mode="normal" in="SourceGraphic" in2="effect1_dropShadow" result="shape"/>
</filter>
<clipPath id="clip0">
<rect width="256" height="288" fill="white"/>
</clipPath>
</defs>
</svg>
