<svg width="256" height="255" viewBox="0 0 256 255" fill="none" xmlns="http://www.w3.org/2000/svg">
<g clip-path="url(#clip0)">
<path d="M126.916 0.0722656C62.0836 0.0722702 66.1321 28.1875 66.1321 28.1875L66.2044 57.3145H128.072V66.0598H41.6307C41.6307 66.0598 0.144531 61.3549 0.144531 126.771C0.144527 192.188 36.3546 189.868 36.3546 189.868H57.965V159.512C57.965 159.512 56.8001 123.302 93.5968 123.302H154.959C154.959 123.302 189.434 123.859 189.434 89.9831V33.9695C189.434 33.9695 194.669 0.0722656 126.916 0.0722656ZM92.8018 19.6589C98.9572 19.6589 103.932 24.634 103.932 30.7894C103.932 36.9448 98.9572 41.9198 92.8018 41.9198C86.6464 41.9198 81.6713 36.9448 81.6713 30.7894C81.6713 24.634 86.6464 19.6589 92.8018 19.6589Z" fill="url(#paint0_linear)"/>
<path d="M128.757 254.126C193.589 254.126 189.541 226.011 189.541 226.011L189.469 196.884H127.601V188.139H214.042C214.042 188.139 255.528 192.844 255.528 127.427C255.528 62.0109 219.318 64.3307 219.318 64.3307H197.708V94.6865C197.708 94.6865 198.873 130.897 162.076 130.897H100.714C100.714 130.897 66.2388 130.339 66.2388 164.216V220.229C66.2388 220.229 61.0044 254.126 128.757 254.126ZM162.871 234.54C156.716 234.54 151.741 229.565 151.741 223.409C151.741 217.254 156.716 212.279 162.871 212.279C169.027 212.279 174.002 217.254 174.002 223.409C174.002 229.565 169.027 234.54 162.871 234.54Z" fill="url(#paint1_linear)"/>
<g filter="url(#filter0_d)">
<path d="M245.229 132.343L245.229 132.343L245.23 132.355C245.312 133.695 244.993 135.03 244.315 136.188L244.315 136.188C243.636 137.346 242.628 138.276 241.42 138.859C240.211 139.442 238.857 139.652 237.529 139.462C236.201 139.272 234.959 138.691 233.963 137.792L233.963 137.792C232.966 136.894 232.259 135.718 231.932 134.416C231.605 133.114 231.672 131.743 232.126 130.48C232.58 129.216 233.4 128.116 234.48 127.32C235.561 126.524 236.853 126.069 238.194 126.011L238.194 126.011L238.205 126.01C239.082 125.962 239.961 126.087 240.789 126.38L240.789 126.38C241.617 126.672 242.38 127.126 243.033 127.714C243.686 128.303 244.216 129.015 244.593 129.809C244.97 130.603 245.186 131.465 245.229 132.343Z" fill="white" stroke="black" stroke-width="2"/>
<path d="M246.021 208.141C242.278 215.725 236.67 222.268 229.687 227.134C221.263 233.004 211.245 236.151 200.98 236.151C190.715 236.151 180.696 233.004 172.272 227.134L171.701 227.954L172.272 227.134C165.285 222.265 159.674 215.716 155.931 208.125C166.157 217.181 182.646 222.983 200.98 222.983C219.384 222.983 235.821 217.188 246.021 208.141Z" fill="#FF9431" stroke="black" stroke-width="2"/>
<path d="M155.939 164.793C159.682 157.21 165.29 150.667 172.272 145.801L171.701 144.981L172.272 145.801C180.696 139.931 190.715 136.784 200.98 136.784C211.245 136.784 221.263 139.931 229.687 145.801C236.674 150.67 242.286 157.219 246.029 164.809C235.802 155.754 219.314 149.952 200.98 149.952C182.573 149.952 166.151 155.731 155.939 164.793Z" fill="#FF9431" stroke="black" stroke-width="2"/>
<path d="M171.63 243.292L171.63 243.292L171.63 243.302C171.739 245.041 171.327 246.774 170.448 248.279C169.569 249.783 168.263 250.992 166.695 251.751C165.127 252.51 163.369 252.784 161.645 252.539C159.921 252.295 158.308 251.542 157.013 250.377C155.718 249.212 154.798 247.687 154.372 245.997C153.946 244.307 154.032 242.528 154.619 240.887C155.207 239.246 156.269 237.818 157.671 236.783C159.072 235.749 160.75 235.155 162.49 235.079L162.49 235.079L162.499 235.078C163.637 235.017 164.777 235.181 165.852 235.561C166.927 235.941 167.917 236.529 168.765 237.292C169.612 238.055 170.302 238.977 170.794 240.007L170.794 240.007C171.285 241.036 171.569 242.153 171.63 243.292Z" fill="white" stroke="black" stroke-width="2"/>
<path d="M151.727 139.67L151.727 139.67C152.35 139.002 153.156 138.533 154.045 138.323L154.045 138.323C154.933 138.113 155.863 138.17 156.719 138.487C157.575 138.805 158.318 139.369 158.855 140.108L158.855 140.108C159.391 140.845 159.697 141.725 159.736 142.636C159.77 143.871 159.316 145.071 158.473 145.975L158.473 145.975C157.63 146.878 156.466 147.413 155.232 147.464C154.322 147.488 153.425 147.242 152.653 146.758C151.879 146.273 151.266 145.57 150.891 144.737C150.515 143.904 150.394 142.978 150.543 142.077C150.692 141.175 151.104 140.338 151.727 139.67Z" fill="white" stroke="black" stroke-width="2"/>
</g>
</g>
<defs>
<filter id="filter0_d" x="146" y="125" width="119" height="138" filterUnits="userSpaceOnUse" color-interpolation-filters="sRGB">
<feFlood flood-opacity="0" result="BackgroundImageFix"/>
<feColorMatrix in="SourceAlpha" type="matrix" values="0 0 0 0 0 0 0 0 0 0 0 0 0 0 0 0 0 0 127 0"/>
<feOffset dx="5" dy="5"/>
<feGaussianBlur stdDeviation="2"/>
<feColorMatrix type="matrix" values="0 0 0 0 0 0 0 0 0 0 0 0 0 0 0 0 0 0 0.5 0"/>
<feBlend mode="normal" in2="BackgroundImageFix" result="effect1_dropShadow"/>
<feBlend mode="normal" in="SourceGraphic" in2="effect1_dropShadow" result="shape"/>
</filter>
<linearGradient id="paint0_linear" x1="24.6874" y1="22.9237" x2="151.246" y2="148.22" gradientUnits="userSpaceOnUse">
<stop stop-color="#387EB8"/>
<stop offset="1" stop-color="#366994"/>
</linearGradient>
<linearGradient id="paint1_linear" x1="102.369" y1="103.381" x2="238.28" y2="231.862" gradientUnits="userSpaceOnUse">
<stop stop-color="#FFE052"/>
<stop offset="1" stop-color="#FFC331"/>
</linearGradient>
<clipPath id="clip0">
<rect width="256" height="255" fill="white"/>
</clipPath>
</defs>
</svg>
