<svg width="256" height="255" viewBox="0 0 256 255" fill="none" xmlns="http://www.w3.org/2000/svg">
<path d="M126.916 0.0722656C62.0836 0.0722702 66.1321 28.1875 66.1321 28.1875L66.2044 57.3145H128.072V66.0598H41.6307C41.6307 66.0598 0.144531 61.3549 0.144531 126.771C0.144527 192.188 36.3546 189.868 36.3546 189.868H57.965V159.512C57.965 159.512 56.8001 123.302 93.5968 123.302H154.959C154.959 123.302 189.434 123.859 189.434 89.9831V33.9695C189.434 33.9695 194.669 0.0722656 126.916 0.0722656ZM92.8018 19.6589C98.9572 19.6589 103.932 24.634 103.932 30.7894C103.932 36.9448 98.9572 41.9198 92.8018 41.9198C86.6464 41.9198 81.6713 36.9448 81.6713 30.7894C81.6713 24.634 86.6464 19.6589 92.8018 19.6589Z" fill="url(#paint0_linear)"/>
<path d="M128.757 254.126C193.589 254.126 189.541 226.011 189.541 226.011L189.469 196.884H127.601V188.139H214.042C214.042 188.139 255.528 192.844 255.528 127.427C255.528 62.0109 219.318 64.3307 219.318 64.3307H197.708V94.6865C197.708 94.6865 198.873 130.897 162.076 130.897H100.714C100.714 130.897 66.2388 130.339 66.2388 164.216V220.229C66.2388 220.229 61.0044 254.126 128.757 254.126ZM162.871 234.54C156.716 234.54 151.741 229.565 151.741 223.409C151.741 217.254 156.716 212.279 162.871 212.279C169.027 212.279 174.002 217.254 174.002 223.409C174.002 229.565 169.027 234.54 162.871 234.54Z" fill="url(#paint1_linear)"/>
<path d="M231.42 128.859C230.211 129.442 228.857 129.652 227.529 129.462C226.201 129.272 224.959 128.691 223.963 127.792L223.963 127.792C222.966 126.894 222.259 125.718 221.932 124.416C221.605 123.114 221.672 121.743 222.126 120.48C222.58 119.216 223.4 118.116 224.48 117.32C225.561 116.524 226.853 116.069 228.194 116.011L228.194 116.011L228.205 116.01C229.082 115.962 229.961 116.087 230.789 116.38L230.789 116.38C231.617 116.672 232.38 117.126 233.033 117.714C233.686 118.303 234.216 119.015 234.593 119.809C234.97 120.603 235.186 121.465 235.229 122.343L235.229 122.343L235.23 122.355C235.312 123.695 234.993 125.03 234.315 126.188L234.315 126.188C233.636 127.346 232.628 128.276 231.42 128.859ZM231.42 128.859L231.854 129.76M231.42 128.859L231.854 129.76M231.854 129.76C233.242 129.091 234.398 128.023 235.177 126.693L223.887 116.515C222.647 117.429 221.706 118.691 221.185 120.142C220.664 121.592 220.586 123.165 220.962 124.66C221.337 126.154 222.149 127.504 223.293 128.535C224.437 129.567 225.863 130.234 227.387 130.452C228.912 130.67 230.467 130.429 231.854 129.76Z" fill="white" stroke="black" stroke-width="2"/>
<path d="M145.931 198.125C156.157 207.181 172.646 212.983 190.98 212.983C209.384 212.983 225.821 207.188 236.021 198.141C232.278 205.725 226.67 212.268 219.687 217.134C211.263 223.004 201.245 226.151 190.98 226.151C180.715 226.151 170.696 223.004 162.272 217.134L161.701 217.954L162.272 217.134C155.285 212.265 149.674 205.716 145.931 198.125Z" fill="#FF9431" stroke="black" stroke-width="2"/>
<path d="M236.029 154.809C225.802 145.754 209.314 139.952 190.98 139.952C172.573 139.952 156.151 145.731 145.939 154.793C149.682 147.21 155.29 140.667 162.272 135.801L161.701 134.981L162.272 135.801C170.696 129.931 180.715 126.784 190.98 126.784C201.245 126.784 211.263 129.931 219.687 135.801C226.674 140.67 232.286 147.219 236.029 154.809Z" fill="#FF9431" stroke="black" stroke-width="2"/>
<path d="M161.63 233.292L161.63 233.292L161.63 233.302C161.739 235.041 161.327 236.774 160.448 238.279C159.569 239.783 158.263 240.992 156.695 241.751C155.127 242.51 153.369 242.784 151.645 242.539C149.921 242.295 148.308 241.542 147.013 240.377C145.718 239.212 144.798 237.687 144.372 235.997C143.946 234.307 144.032 232.528 144.619 230.887C145.207 229.246 146.269 227.818 147.671 226.783C149.072 225.749 150.75 225.155 152.49 225.079L152.49 225.079L152.499 225.078C153.637 225.017 154.777 225.181 155.852 225.561C156.927 225.941 157.917 226.529 158.765 227.292C159.612 228.055 160.302 228.977 160.794 230.007L160.794 230.007C161.285 231.036 161.569 232.153 161.63 233.292Z" fill="white" stroke="black" stroke-width="2"/>
<path d="M141.727 129.67L141.727 129.67C142.35 129.002 143.156 128.533 144.045 128.323L144.045 128.323C144.933 128.113 145.863 128.17 146.719 128.487C147.575 128.805 148.318 129.369 148.855 130.108L148.855 130.108C149.391 130.845 149.697 131.725 149.736 132.636C149.77 133.871 149.316 135.071 148.473 135.975L148.473 135.975C147.63 136.878 146.466 137.413 145.232 137.464C144.322 137.488 143.425 137.242 142.653 136.758C141.879 136.273 141.266 135.57 140.891 134.737C140.515 133.904 140.394 132.978 140.543 132.077C140.692 131.175 141.104 130.338 141.727 129.67Z" fill="white" stroke="black" stroke-width="2"/>
<defs>
<linearGradient id="paint0_linear" x1="24.6874" y1="22.9237" x2="151.246" y2="148.22" gradientUnits="userSpaceOnUse">
<stop stop-color="#387EB8"/>
<stop offset="1" stop-color="#366994"/>
</linearGradient>
<linearGradient id="paint1_linear" x1="102.369" y1="103.381" x2="238.28" y2="231.862" gradientUnits="userSpaceOnUse">
<stop stop-color="#FFE052"/>
<stop offset="1" stop-color="#FFC331"/>
</linearGradient>
</defs>
</svg>
