<?xml version="1.0" encoding="UTF-8" standalone="no"?><svg xmlns="http://www.w3.org/2000/svg" xmlns:xlink="http://www.w3.org/1999/xlink" contentScriptType="application/ecmascript" contentStyleType="text/css" height="397px" preserveAspectRatio="none" style="width:436px;height:397px;" version="1.1" viewBox="0 0 436 397" width="436px" zoomAndPan="magnify"><defs><filter height="300%" id="f19bz731uoe8sd" width="300%" x="-1" y="-1"><feGaussianBlur result="blurOut" stdDeviation="2.0"/><feColorMatrix in="blurOut" result="blurOut2" type="matrix" values="0 0 0 0 0 0 0 0 0 0 0 0 0 0 0 0 0 0 .4 0"/><feOffset dx="4.0" dy="4.0" in="blurOut2" result="blurOut3"/><feBlend in="SourceGraphic" in2="blurOut3" mode="normal"/></filter></defs><g><ellipse cx="216" cy="20" fill="#000000" filter="url(#f19bz731uoe8sd)" rx="10" ry="10" style="stroke: none; stroke-width: 1.0;"/><polygon fill="#FEFECE" filter="url(#f19bz731uoe8sd)" points="147,50,295,50,285,66.9844,295,83.9688,147,83.9688" style="stroke: #A80036; stroke-width: 1.5;"/><text fill="#000000" font-family="sans-serif" font-size="12" lengthAdjust="spacingAndGlyphs" textLength="118" x="157" y="71.1387">Get data from *.csv</text><rect fill="#000000" filter="url(#f19bz731uoe8sd)" height="6" rx="2.5" ry="2.5" style="stroke: #000000; stroke-width: 1.0;" width="414" x="10" y="103.9688"/><rect fill="#FEFECE" filter="url(#f19bz731uoe8sd)" height="33.9688" rx="12.5" ry="12.5" style="stroke: #A80036; stroke-width: 1.5;" width="99" x="22" y="129.9688"/><text fill="#000000" font-family="sans-serif" font-size="12" lengthAdjust="spacingAndGlyphs" textLength="79" x="32" y="151.1074">Run C# code</text><polygon fill="#FEFECE" filter="url(#f19bz731uoe8sd)" points="27,183.9375,116,183.9375,126,200.9219,116,217.9063,27,217.9063" style="stroke: #A80036; stroke-width: 1.5;"/><text fill="#000000" font-family="sans-serif" font-size="12" lengthAdjust="spacingAndGlyphs" textLength="65" x="37" y="205.0762">C# Results</text><rect fill="#FEFECE" filter="url(#f19bz731uoe8sd)" height="33.9688" rx="12.5" ry="12.5" style="stroke: #A80036; stroke-width: 1.5;" width="109" x="149" y="129.9688"/><text fill="#000000" font-family="sans-serif" font-size="12" lengthAdjust="spacingAndGlyphs" textLength="89" x="159" y="151.1074">Run C++ code</text><polygon fill="#FEFECE" filter="url(#f19bz731uoe8sd)" points="154,183.9375,253,183.9375,263,200.9219,253,217.9063,154,217.9063" style="stroke: #A80036; stroke-width: 1.5;"/><text fill="#000000" font-family="sans-serif" font-size="12" lengthAdjust="spacingAndGlyphs" textLength="75" x="164" y="205.0762">C++ Results</text><rect fill="#FEFECE" filter="url(#f19bz731uoe8sd)" height="33.9688" rx="12.5" ry="12.5" style="stroke: #A80036; stroke-width: 1.5;" width="124" x="286" y="129.9688"/><text fill="#000000" font-family="sans-serif" font-size="12" lengthAdjust="spacingAndGlyphs" textLength="104" x="296" y="151.1074">Run python code</text><polygon fill="#FEFECE" filter="url(#f19bz731uoe8sd)" points="291.5,183.9375,404.5,183.9375,414.5,200.9219,404.5,217.9063,291.5,217.9063" style="stroke: #A80036; stroke-width: 1.5;"/><text fill="#000000" font-family="sans-serif" font-size="12" lengthAdjust="spacingAndGlyphs" textLength="89" x="301.5" y="205.0762">Python Results</text><rect fill="#000000" filter="url(#f19bz731uoe8sd)" height="6" rx="2.5" ry="2.5" style="stroke: #000000; stroke-width: 1.0;" width="414" x="10" y="237.9063"/><polygon fill="#FEFECE" filter="url(#f19bz731uoe8sd)" points="130.5,263.9063,311.5,263.9063,301.5,280.8906,311.5,297.875,130.5,297.875" style="stroke: #A80036; stroke-width: 1.5;"/><text fill="#000000" font-family="sans-serif" font-size="12" lengthAdjust="spacingAndGlyphs" textLength="151" x="140.5" y="285.0449">Python, C#, C++ Results</text><ellipse cx="216" cy="376.2864" fill="#FFFFFF" filter="url(#f19bz731uoe8sd)" rx="10" ry="10" style="stroke: #000000; stroke-width: 1.5;"/><line style="stroke: #000000; stroke-width: 2.5;" x1="209.8128" x2="222.1872" y1="370.0993" y2="382.4736"/><line style="stroke: #000000; stroke-width: 2.5;" x1="222.1872" x2="209.8128" y1="370.0993" y2="382.4736"/><polygon fill="#FEFECE" filter="url(#f19bz731uoe8sd)" points="114,317.875,318,317.875,330,329.875,318,341.875,114,341.875,102,329.875,114,317.875" style="stroke: #A80036; stroke-width: 1.5;"/><text fill="#000000" font-family="sans-serif" font-size="11" lengthAdjust="spacingAndGlyphs" textLength="27" x="220" y="352.1">false</text><text fill="#000000" font-family="sans-serif" font-size="11" lengthAdjust="spacingAndGlyphs" textLength="204" x="114" y="333.6885">C# Results == Py Res == C++ Res</text><text fill="#000000" font-family="sans-serif" font-size="11" lengthAdjust="spacingAndGlyphs" textLength="23" x="330" y="327.2771">true</text><ellipse cx="375" cy="329.875" fill="#FFFFFF" filter="url(#f19bz731uoe8sd)" rx="11" ry="11" style="stroke: #000000; stroke-width: 1.0;"/><ellipse cx="375" cy="329.875" fill="#000000" rx="6" ry="6" style="stroke: #7F7F7F; stroke-width: 1.0;"/><line style="stroke: #A80036; stroke-width: 1.5;" x1="216" x2="216" y1="30" y2="50"/><polygon fill="#A80036" points="212,40,216,50,220,40,216,44" style="stroke: #A80036; stroke-width: 1.0;"/><line style="stroke: #A80036; stroke-width: 1.5;" x1="71.5" x2="71.5" y1="163.9375" y2="183.9375"/><polygon fill="#A80036" points="67.5,173.9375,71.5,183.9375,75.5,173.9375,71.5,177.9375" style="stroke: #A80036; stroke-width: 1.0;"/><line style="stroke: #A80036; stroke-width: 1.5;" x1="203.5" x2="203.5" y1="163.9375" y2="183.9375"/><polygon fill="#A80036" points="199.5,173.9375,203.5,183.9375,207.5,173.9375,203.5,177.9375" style="stroke: #A80036; stroke-width: 1.0;"/><line style="stroke: #A80036; stroke-width: 1.5;" x1="348" x2="348" y1="163.9375" y2="183.9375"/><polygon fill="#A80036" points="344,173.9375,348,183.9375,352,173.9375,348,177.9375" style="stroke: #A80036; stroke-width: 1.0;"/><line style="stroke: #A80036; stroke-width: 1.5;" x1="71.5" x2="71.5" y1="109.9688" y2="129.9688"/><polygon fill="#A80036" points="67.5,119.9688,71.5,129.9688,75.5,119.9688,71.5,123.9688" style="stroke: #A80036; stroke-width: 1.0;"/><line style="stroke: #A80036; stroke-width: 1.5;" x1="203.5" x2="203.5" y1="109.9688" y2="129.9688"/><polygon fill="#A80036" points="199.5,119.9688,203.5,129.9688,207.5,119.9688,203.5,123.9688" style="stroke: #A80036; stroke-width: 1.0;"/><line style="stroke: #A80036; stroke-width: 1.5;" x1="348" x2="348" y1="109.9688" y2="129.9688"/><polygon fill="#A80036" points="344,119.9688,348,129.9688,352,119.9688,348,123.9688" style="stroke: #A80036; stroke-width: 1.0;"/><line style="stroke: #A80036; stroke-width: 1.5;" x1="71.5" x2="71.5" y1="217.9063" y2="237.9063"/><polygon fill="#A80036" points="67.5,227.9063,71.5,237.9063,75.5,227.9063,71.5,231.9063" style="stroke: #A80036; stroke-width: 1.0;"/><line style="stroke: #A80036; stroke-width: 1.5;" x1="203.5" x2="203.5" y1="217.9063" y2="237.9063"/><polygon fill="#A80036" points="199.5,227.9063,203.5,237.9063,207.5,227.9063,203.5,231.9063" style="stroke: #A80036; stroke-width: 1.0;"/><line style="stroke: #A80036; stroke-width: 1.5;" x1="348" x2="348" y1="217.9063" y2="237.9063"/><polygon fill="#A80036" points="344,227.9063,348,237.9063,352,227.9063,348,231.9063" style="stroke: #A80036; stroke-width: 1.0;"/><line style="stroke: #A80036; stroke-width: 1.5;" x1="216" x2="216" y1="83.9688" y2="103.9688"/><polygon fill="#A80036" points="212,93.9688,216,103.9688,220,93.9688,216,97.9688" style="stroke: #A80036; stroke-width: 1.0;"/><line style="stroke: #A80036; stroke-width: 1.5;" x1="216" x2="216" y1="243.9063" y2="263.9063"/><polygon fill="#A80036" points="212,253.9063,216,263.9063,220,253.9063,216,257.9063" style="stroke: #A80036; stroke-width: 1.0;"/><line style="stroke: #A80036; stroke-width: 1.5;" x1="216" x2="216" y1="341.875" y2="366.2864"/><polygon fill="#A80036" points="212,356.2864,216,366.2864,220,356.2864,216,360.2864" style="stroke: #A80036; stroke-width: 1.0;"/><line style="stroke: #A80036; stroke-width: 1.5;" x1="330" x2="364" y1="329.875" y2="329.875"/><polygon fill="#A80036" points="354,325.875,364,329.875,354,333.875,358,329.875" style="stroke: #A80036; stroke-width: 1.0;"/><line style="stroke: #A80036; stroke-width: 1.5;" x1="216" x2="216" y1="297.875" y2="317.875"/><polygon fill="#A80036" points="212,307.875,216,317.875,220,307.875,216,311.875" style="stroke: #A80036; stroke-width: 1.0;"/><!--MD5=[b431451b68efc8ce3729c32dbddd933d]
@startuml

start

:Get data from *.csv<

fork
:Run C# code;
:C# Results >
fork again
:Run C++ code;
:C++ Results >
fork again
:Run python code;
:Python Results >
endfork
:Python, C#, C++ Results<
if (C# Results == Py Res == C++ Res) then (true)
    stop
else (false)
    end
endif

@enduml

PlantUML version 1.2020.03beta6(Unknown compile time)
(GPL source distribution)
Java Runtime: OpenJDK Runtime Environment
JVM: OpenJDK 64-Bit Server VM
Java Version: 11.0.6+8-b765.25
Operating System: Linux
Default Encoding: UTF-8
Language: en
Country: US
--></g></svg>