<?xml version="1.0" encoding="UTF-8" standalone="no"?><svg xmlns="http://www.w3.org/2000/svg" xmlns:xlink="http://www.w3.org/1999/xlink" contentScriptType="application/ecmascript" contentStyleType="text/css" height="185px" preserveAspectRatio="none" style="width:246px;height:185px;" version="1.1" viewBox="0 0 246 185" width="246px" zoomAndPan="magnify"><defs><filter height="300%" id="f1rumig39p5cfr" width="300%" x="-1" y="-1"><feGaussianBlur result="blurOut" stdDeviation="2.0"/><feColorMatrix in="blurOut" result="blurOut2" type="matrix" values="0 0 0 0 0 0 0 0 0 0 0 0 0 0 0 0 0 0 .4 0"/><feOffset dx="4.0" dy="4.0" in="blurOut2" result="blurOut3"/><feBlend in="SourceGraphic" in2="blurOut3" mode="normal"/></filter></defs><g><!--MD5=[a83d828be13d333e1fddb3d4d9d97191]
class Handler--><rect fill="#FEFECE" filter="url(#f1rumig39p5cfr)" height="167.4059" id="Handler" style="stroke: #A80036; stroke-width: 1.5;" width="228" x="7" y="7"/><ellipse cx="93.25" cy="23" fill="#ADD1B2" rx="11" ry="11" style="stroke: #A80036; stroke-width: 1.0;"/><path d="M95.7344,28.875 Q95.1563,29.1875 94.5156,29.3438 Q93.875,29.5 93.1719,29.5 Q90.6563,29.5 89.3281,27.8281 Q88.0156,26.1563 88.0156,23 Q88.0156,19.8438 89.3281,18.1719 Q90.6563,16.5 93.1719,16.5 Q93.875,16.5 94.5156,16.6563 Q95.1719,16.8125 95.7344,17.125 L95.7344,19.9219 Q95.0938,19.3438 94.5,19.0781 Q93.9063,18.8125 93.2813,18.8125 Q91.9375,18.8125 91.25,19.875 Q90.5625,20.9219 90.5625,23 Q90.5625,25.0781 91.25,26.1406 Q91.9375,27.1875 93.2813,27.1875 Q93.9063,27.1875 94.5,26.9219 Q95.0938,26.6563 95.7344,26.0781 L95.7344,28.875 Z "/><text fill="#000000" font-family="sans-serif" font-size="12" lengthAdjust="spacingAndGlyphs" textLength="47" x="113.75" y="27.1543">Handler</text><line style="stroke: #A80036; stroke-width: 1.5;" x1="8" x2="234" y1="39" y2="39"/><rect fill="none" height="6" style="stroke: #C82930; stroke-width: 1.0;" width="6" x="15" y="47"/><text fill="#000000" font-family="sans-serif" font-size="11" lengthAdjust="spacingAndGlyphs" textLength="74" x="27" y="53.225">double result</text><ellipse cx="18" cy="62.8229" fill="none" rx="3" ry="3" style="stroke: #038048; stroke-width: 1.0;"/><text fill="#000000" font-family="sans-serif" font-size="11" lengthAdjust="spacingAndGlyphs" textLength="93" x="27" y="66.0478">double a, b, c, d</text><ellipse cx="18" cy="75.6458" fill="none" rx="3" ry="3" style="stroke: #038048; stroke-width: 1.0;"/><text fill="#000000" font-family="sans-serif" font-size="11" lengthAdjust="spacingAndGlyphs" textLength="92" x="27" y="78.8707">Object[] Handler</text><ellipse cx="18" cy="105.2915" fill="#84BE84" rx="3" ry="3" style="stroke: #038048; stroke-width: 1.0;"/><text fill="#000000" font-family="sans-serif" font-size="11" lengthAdjust="spacingAndGlyphs" textLength="103" x="27" y="108.5165">double getResult()</text><line style="stroke: #A80036; stroke-width: 1.5;" x1="8" x2="36.5" y1="91.8801" y2="91.8801"/><text fill="#000000" font-family="sans-serif" font-size="11" lengthAdjust="spacingAndGlyphs" textLength="32" x="36.5" y="95.1936">throw</text><text fill="#000000" font-family="sans-serif" font-size="11" font-weight="bold" lengthAdjust="spacingAndGlyphs" textLength="133" x="72.5" y="95.1936">NotImplementedError</text><line style="stroke: #A80036; stroke-width: 1.5;" x1="205.5" x2="234" y1="91.8801" y2="91.8801"/><ellipse cx="18" cy="134.9373" fill="#84BE84" rx="3" ry="3" style="stroke: #038048; stroke-width: 1.0;"/><text fill="#000000" font-family="sans-serif" font-size="11" lengthAdjust="spacingAndGlyphs" textLength="115" x="27" y="138.1622">double[7] calculate()</text><line style="stroke: #A80036; stroke-width: 1.5;" x1="8" x2="11" y1="121.5258" y2="121.5258"/><text fill="#000000" font-family="sans-serif" font-size="11" lengthAdjust="spacingAndGlyphs" textLength="32" x="11" y="124.8393">throw</text><text fill="#000000" font-family="sans-serif" font-size="11" font-weight="bold" lengthAdjust="spacingAndGlyphs" textLength="66" x="47" y="124.8393">ValueError</text><text fill="#000000" font-family="sans-serif" font-size="11" lengthAdjust="spacingAndGlyphs" textLength="4" x="113" y="124.8393">,</text><text fill="#000000" font-family="sans-serif" font-size="11" font-weight="bold" lengthAdjust="spacingAndGlyphs" textLength="110" x="121" y="124.8393">ZeroDivisionError</text><line style="stroke: #A80036; stroke-width: 1.5;" x1="231" x2="234" y1="121.5258" y2="121.5258"/><ellipse cx="18" cy="164.583" fill="#84BE84" rx="3" ry="3" style="stroke: #038048; stroke-width: 1.0;"/><text fill="#000000" font-family="sans-serif" font-size="11" lengthAdjust="spacingAndGlyphs" textLength="72" x="27" y="167.808">void logger()</text><line style="stroke: #A80036; stroke-width: 1.5;" x1="8" x2="95.5" y1="151.1716" y2="151.1716"/><text fill="#000000" font-family="sans-serif" font-size="11" lengthAdjust="spacingAndGlyphs" textLength="30" x="95.5" y="154.4851">catch</text><text fill="#000000" font-family="sans-serif" font-size="11" font-weight="bold" lengthAdjust="spacingAndGlyphs" textLength="17" x="129.5" y="154.4851">All</text><line style="stroke: #A80036; stroke-width: 1.5;" x1="146.5" x2="234" y1="151.1716" y2="151.1716"/><!--MD5=[bb9b751bc29d8df010da1094ee1f1d3e]
@startuml

class Handler {
- double result
+ double a, b, c, d
+ Object[] Handler
__ throw **NotImplementedError** __
+ double getResult()
__ throw **ValueError**, **ZeroDivisionError** __
+ double[7] calculate()
__ catch **All** __
+ void logger()
}

@enduml

PlantUML version 1.2020.03beta6(Unknown compile time)
(GPL source distribution)
Java Runtime: OpenJDK Runtime Environment
JVM: OpenJDK 64-Bit Server VM
Java Version: 11.0.6+8-b765.25
Operating System: Linux
Default Encoding: UTF-8
Language: en
Country: US
--></g></svg>