<svg width="115" height="73" viewBox="0 0 115 73" fill="none" xmlns="http://www.w3.org/2000/svg">
<path d="M5.0918 67.791H2.24414L1.55859 70H0.474609L3.22852 61.4688H4.13672L6.84375 70H5.76562L5.0918 67.791ZM2.53711 66.8477H4.80469L3.67969 63.1445L2.53711 66.8477Z" fill="black"/>
<path d="M1.00781 11V2.46875H3.54492C3.89648 2.47266 4.24023 2.51953 4.57617 2.60938C4.91211 2.69531 5.21094 2.83008 5.47266 3.01367C5.73438 3.19727 5.94336 3.43164 6.09961 3.7168C6.25586 4.00195 6.33203 4.34375 6.32812 4.74219C6.32422 4.96484 6.28711 5.16797 6.2168 5.35156C6.15039 5.53516 6.05664 5.70117 5.93555 5.84961C5.81836 5.99414 5.67969 6.12109 5.51953 6.23047C5.35938 6.33984 5.18945 6.43359 5.00977 6.51172C5.23633 6.57812 5.44336 6.67383 5.63086 6.79883C5.82227 6.91992 5.98633 7.06836 6.12305 7.24414C6.25977 7.41602 6.36523 7.61133 6.43945 7.83008C6.51758 8.04883 6.55664 8.28516 6.55664 8.53906C6.56055 8.9375 6.48438 9.28906 6.32812 9.59375C6.17188 9.89844 5.96289 10.1543 5.70117 10.3613C5.43945 10.5645 5.13672 10.7207 4.79297 10.8301C4.45312 10.9395 4.10156 10.9961 3.73828 11H1.00781ZM2.09766 7.00977V10.0801H3.76758C3.99414 10.0762 4.20898 10.0391 4.41211 9.96875C4.61523 9.89453 4.79492 9.79297 4.95117 9.66406C5.10742 9.53516 5.23047 9.37695 5.32031 9.18945C5.41406 9.00195 5.46094 8.78906 5.46094 8.55078C5.46484 8.30859 5.42383 8.09375 5.33789 7.90625C5.25586 7.71875 5.14062 7.56055 4.99219 7.43164C4.84375 7.29883 4.66992 7.19727 4.4707 7.12695C4.27148 7.05664 4.05664 7.01758 3.82617 7.00977H2.09766ZM2.09766 6.10742H3.60938C3.8125 6.10352 4.01172 6.07227 4.20703 6.01367C4.40234 5.95117 4.57617 5.86328 4.72852 5.75C4.88086 5.63281 5.00391 5.49023 5.09766 5.32227C5.19141 5.1543 5.23828 4.95898 5.23828 4.73633C5.23828 4.49805 5.19141 4.29492 5.09766 4.12695C5.00781 3.95898 4.88477 3.82227 4.72852 3.7168C4.57617 3.60742 4.39844 3.52734 4.19531 3.47656C3.99609 3.42578 3.79102 3.39844 3.58008 3.39453H2.09766V6.10742Z" fill="black"/>
<path d="M113.545 8.43359C113.494 8.82812 113.393 9.19141 113.24 9.52344C113.088 9.85156 112.889 10.1348 112.643 10.373C112.4 10.6074 112.111 10.791 111.775 10.9238C111.443 11.0527 111.072 11.1172 110.662 11.1172C110.311 11.1172 109.99 11.0684 109.701 10.9707C109.416 10.8691 109.16 10.7305 108.934 10.5547C108.711 10.3789 108.518 10.1719 108.354 9.93359C108.193 9.69531 108.059 9.43555 107.949 9.1543C107.844 8.87305 107.764 8.57812 107.709 8.26953C107.658 7.96094 107.631 7.64844 107.627 7.33203V6.14258C107.631 5.82617 107.658 5.51367 107.709 5.20508C107.764 4.89648 107.844 4.60156 107.949 4.32031C108.059 4.03906 108.193 3.7793 108.354 3.54102C108.518 3.29883 108.711 3.08984 108.934 2.91406C109.16 2.73828 109.416 2.60156 109.701 2.50391C109.986 2.40234 110.307 2.35156 110.662 2.35156C111.088 2.35156 111.469 2.41797 111.805 2.55078C112.141 2.67969 112.43 2.86523 112.672 3.10742C112.914 3.3457 113.107 3.63281 113.252 3.96875C113.4 4.30469 113.498 4.67578 113.545 5.08203H112.461C112.426 4.82422 112.365 4.58398 112.279 4.36133C112.193 4.13867 112.078 3.94336 111.934 3.77539C111.789 3.60742 111.611 3.47656 111.4 3.38281C111.193 3.28516 110.947 3.23633 110.662 3.23633C110.404 3.23633 110.176 3.2793 109.977 3.36523C109.781 3.44727 109.611 3.56055 109.467 3.70508C109.326 3.84961 109.207 4.01758 109.109 4.20898C109.016 4.40039 108.939 4.60352 108.881 4.81836C108.822 5.0332 108.779 5.25391 108.752 5.48047C108.729 5.70312 108.717 5.91992 108.717 6.13086V7.33203C108.717 7.54297 108.729 7.76172 108.752 7.98828C108.779 8.21094 108.822 8.43164 108.881 8.65039C108.939 8.86523 109.016 9.06836 109.109 9.25977C109.203 9.45117 109.322 9.62109 109.467 9.76953C109.611 9.91406 109.781 10.0293 109.977 10.1152C110.172 10.1973 110.4 10.2383 110.662 10.2383C110.947 10.2383 111.193 10.1934 111.4 10.1035C111.611 10.0137 111.789 9.88867 111.934 9.72852C112.078 9.56445 112.193 9.37305 112.279 9.1543C112.365 8.93164 112.426 8.69141 112.461 8.43359H113.545Z" fill="black"/>
<path d="M107.908 70V61.4688H109.883C110.477 61.4766 111.006 61.5781 111.471 61.7734C111.939 61.9648 112.334 62.2344 112.654 62.582C112.979 62.9258 113.225 63.3398 113.393 63.8242C113.564 64.3047 113.652 64.8379 113.656 65.4238V66.0508C113.652 66.6367 113.564 67.1719 113.393 67.6562C113.225 68.1367 112.979 68.5508 112.654 68.8984C112.334 69.2422 111.939 69.5117 111.471 69.707C111.006 69.8984 110.477 69.9961 109.883 70H107.908ZM109.01 62.3594V69.1152H109.883C110.344 69.1113 110.742 69.0312 111.078 68.875C111.414 68.7148 111.691 68.498 111.91 68.2246C112.133 67.9512 112.297 67.6289 112.402 67.2578C112.512 66.8867 112.568 66.4844 112.572 66.0508V65.4121C112.568 64.9785 112.512 64.5781 112.402 64.2109C112.293 63.8398 112.129 63.5195 111.91 63.25C111.691 62.9766 111.414 62.7617 111.078 62.6055C110.742 62.4492 110.344 62.3672 109.883 62.3594H109.01Z" fill="black"/>
<rect x="7.75" y="11.75" width="98.5" height="48.5" stroke="black" stroke-width="1.5"/>
<rect x="7.25" y="11.25" width="6.5" height="6.5" stroke="black" stroke-width="0.5"/>
<rect x="100.25" y="11.25" width="6.5" height="6.5" stroke="black" stroke-width="0.5"/>
<rect x="100.25" y="54.25" width="6.5" height="6.5" stroke="black" stroke-width="0.5"/>
<rect x="7.25" y="54.25" width="6.5" height="6.5" stroke="black" stroke-width="0.5"/>
</svg>
