<?xml version="1.0" encoding="UTF-8" standalone="no"?><svg xmlns="http://www.w3.org/2000/svg" xmlns:xlink="http://www.w3.org/1999/xlink" contentScriptType="application/ecmascript" contentStyleType="text/css" height="649px" preserveAspectRatio="none" style="width:728px;height:649px;" version="1.1" viewBox="0 0 728 649" width="728px" zoomAndPan="magnify"><defs><filter height="300%" id="fdwrnrxpba7re" width="300%" x="-1" y="-1"><feGaussianBlur result="blurOut" stdDeviation="2.0"/><feColorMatrix in="blurOut" result="blurOut2" type="matrix" values="0 0 0 0 0 0 0 0 0 0 0 0 0 0 0 0 0 0 .4 0"/><feOffset dx="4.0" dy="4.0" in="blurOut2" result="blurOut3"/><feBlend in="SourceGraphic" in2="blurOut3" mode="normal"/></filter></defs><g><ellipse cx="363.5" cy="20" fill="#000000" filter="url(#fdwrnrxpba7re)" rx="10" ry="10" style="stroke: none; stroke-width: 1.0;"/><rect fill="#FEFECE" filter="url(#fdwrnrxpba7re)" height="33.9688" rx="12.5" ry="12.5" style="stroke: #A80036; stroke-width: 1.5;" width="212" x="257.5" y="50"/><text fill="#000000" font-family="sans-serif" font-size="12" lengthAdjust="spacingAndGlyphs" textLength="55" x="267.5" y="71.1387">Generate</text><text fill="#000000" font-family="sans-serif" font-size="12" font-weight="bold" lengthAdjust="spacingAndGlyphs" textLength="31" x="326.5" y="71.1387">n * 4</text><text fill="#000000" font-family="sans-serif" font-size="12" lengthAdjust="spacingAndGlyphs" textLength="98" x="361.5" y="71.1387">random doubles</text><polygon fill="#FEFECE" filter="url(#fdwrnrxpba7re)" points="295.5,103.9688,431.5,103.9688,441.5,120.9531,431.5,137.9375,295.5,137.9375" style="stroke: #A80036; stroke-width: 1.5;"/><text fill="#000000" font-family="sans-serif" font-size="12" lengthAdjust="spacingAndGlyphs" textLength="116" x="305.5" y="125.1074">Write them to *.tsv</text><rect fill="#000000" filter="url(#fdwrnrxpba7re)" height="6" rx="2.5" ry="2.5" style="stroke: #000000; stroke-width: 1.0;" width="707" x="10" y="157.9375"/><rect fill="#FEFECE" filter="url(#fdwrnrxpba7re)" height="33.9688" rx="12.5" ry="12.5" style="stroke: #A80036; stroke-width: 1.5;" width="99" x="77" y="183.9375"/><text fill="#000000" font-family="sans-serif" font-size="12" lengthAdjust="spacingAndGlyphs" textLength="79" x="87" y="205.0762">Run C# code</text><polygon fill="#FEFECE" filter="url(#fdwrnrxpba7re)" points="85.5,237.9063,177.5,237.9063,167.5,254.8906,177.5,271.875,85.5,271.875" style="stroke: #A80036; stroke-width: 1.5;"/><text fill="#000000" font-family="sans-serif" font-size="12" lengthAdjust="spacingAndGlyphs" textLength="62" x="95.5" y="259.0449">Read *.tsv</text><rect fill="#FEFECE" filter="url(#fdwrnrxpba7re)" height="33.9688" rx="12.5" ry="12.5" style="stroke: #A80036; stroke-width: 1.5;" width="209" x="22" y="291.875"/><text fill="#000000" font-family="sans-serif" font-size="12" lengthAdjust="spacingAndGlyphs" textLength="189" x="32" y="313.0137">Calculate and catch exceptions</text><polygon fill="#FEFECE" filter="url(#fdwrnrxpba7re)" points="66.5,345.8438,186.5,345.8438,196.5,362.8281,186.5,379.8125,66.5,379.8125" style="stroke: #A80036; stroke-width: 1.5;"/><text fill="#000000" font-family="sans-serif" font-size="12" lengthAdjust="spacingAndGlyphs" textLength="100" x="76.5" y="366.9824">Write C#.log.csv</text><rect fill="#FEFECE" filter="url(#fdwrnrxpba7re)" height="33.9688" rx="12.5" ry="12.5" style="stroke: #A80036; stroke-width: 1.5;" width="109" x="309" y="183.9375"/><text fill="#000000" font-family="sans-serif" font-size="12" lengthAdjust="spacingAndGlyphs" textLength="89" x="319" y="205.0762">Run C++ code</text><polygon fill="#FEFECE" filter="url(#fdwrnrxpba7re)" points="322.5,237.9063,414.5,237.9063,404.5,254.8906,414.5,271.875,322.5,271.875" style="stroke: #A80036; stroke-width: 1.5;"/><text fill="#000000" font-family="sans-serif" font-size="12" lengthAdjust="spacingAndGlyphs" textLength="62" x="332.5" y="259.0449">Read *.tsv</text><rect fill="#FEFECE" filter="url(#fdwrnrxpba7re)" height="33.9688" rx="12.5" ry="12.5" style="stroke: #A80036; stroke-width: 1.5;" width="209" x="259" y="291.875"/><text fill="#000000" font-family="sans-serif" font-size="12" lengthAdjust="spacingAndGlyphs" textLength="189" x="269" y="313.0137">Calculate and catch exceptions</text><polygon fill="#FEFECE" filter="url(#fdwrnrxpba7re)" points="298.5,345.8438,428.5,345.8438,438.5,362.8281,428.5,379.8125,298.5,379.8125" style="stroke: #A80036; stroke-width: 1.5;"/><text fill="#000000" font-family="sans-serif" font-size="12" lengthAdjust="spacingAndGlyphs" textLength="110" x="308.5" y="366.9824">Write C++.log.csv</text><rect fill="#FEFECE" filter="url(#fdwrnrxpba7re)" height="33.9688" rx="12.5" ry="12.5" style="stroke: #A80036; stroke-width: 1.5;" width="123" x="539" y="183.9375"/><text fill="#000000" font-family="sans-serif" font-size="12" lengthAdjust="spacingAndGlyphs" textLength="103" x="549" y="205.0762">Run Python code</text><polygon fill="#FEFECE" filter="url(#fdwrnrxpba7re)" points="559.5,237.9063,651.5,237.9063,641.5,254.8906,651.5,271.875,559.5,271.875" style="stroke: #A80036; stroke-width: 1.5;"/><text fill="#000000" font-family="sans-serif" font-size="12" lengthAdjust="spacingAndGlyphs" textLength="62" x="569.5" y="259.0449">Read *.tsv</text><rect fill="#FEFECE" filter="url(#fdwrnrxpba7re)" height="33.9688" rx="12.5" ry="12.5" style="stroke: #A80036; stroke-width: 1.5;" width="209" x="496" y="291.875"/><text fill="#000000" font-family="sans-serif" font-size="12" lengthAdjust="spacingAndGlyphs" textLength="189" x="506" y="313.0137">Calculate and catch exceptions</text><polygon fill="#FEFECE" filter="url(#fdwrnrxpba7re)" points="528.5,345.8438,672.5,345.8438,682.5,362.8281,672.5,379.8125,528.5,379.8125" style="stroke: #A80036; stroke-width: 1.5;"/><text fill="#000000" font-family="sans-serif" font-size="12" lengthAdjust="spacingAndGlyphs" textLength="124" x="538.5" y="366.9824">Write Python.log.csv</text><rect fill="#000000" filter="url(#fdwrnrxpba7re)" height="6" rx="2.5" ry="2.5" style="stroke: #000000; stroke-width: 1.0;" width="707" x="10" y="399.8125"/><polygon fill="#FEFECE" filter="url(#fdwrnrxpba7re)" points="261,425.8125,476,425.8125,466,442.7969,476,459.7813,261,459.7813" style="stroke: #A80036; stroke-width: 1.5;"/><text fill="#000000" font-family="sans-serif" font-size="12" lengthAdjust="spacingAndGlyphs" textLength="185" x="271" y="446.9512">Read Python, C#, C++ Results</text><polygon fill="#FEFECE" filter="url(#fdwrnrxpba7re)" points="261.5,479.7813,465.5,479.7813,477.5,491.7813,465.5,503.7813,261.5,503.7813,249.5,491.7813,261.5,479.7813" style="stroke: #A80036; stroke-width: 1.5;"/><text fill="#000000" font-family="sans-serif" font-size="11" lengthAdjust="spacingAndGlyphs" textLength="204" x="261.5" y="495.5948">C# Results == Py Res == C++ Res</text><text fill="#000000" font-family="sans-serif" font-size="11" lengthAdjust="spacingAndGlyphs" textLength="23" x="226.5" y="489.1833">true</text><text fill="#000000" font-family="sans-serif" font-size="11" lengthAdjust="spacingAndGlyphs" textLength="27" x="477.5" y="489.1833">false</text><rect fill="#FEFECE" filter="url(#fdwrnrxpba7re)" height="33.9688" rx="12.5" ry="12.5" style="stroke: #A80036; stroke-width: 1.5;" width="110" x="171" y="513.7813"/><text fill="#000000" font-family="sans-serif" font-size="12" lengthAdjust="spacingAndGlyphs" textLength="90" x="181" y="534.9199">This is Success</text><ellipse cx="226" cy="593.75" fill="#FFFFFF" filter="url(#fdwrnrxpba7re)" rx="11" ry="11" style="stroke: #000000; stroke-width: 1.0;"/><ellipse cx="226" cy="593.75" fill="#000000" rx="6" ry="6" style="stroke: #7F7F7F; stroke-width: 1.0;"/><polygon fill="#FEFECE" filter="url(#fdwrnrxpba7re)" points="389,513.7813,613,513.7813,625,525.7813,613,537.7813,389,537.7813,377,525.7813,389,513.7813" style="stroke: #A80036; stroke-width: 1.5;"/><text fill="#000000" font-family="sans-serif" font-size="11" lengthAdjust="spacingAndGlyphs" textLength="224" x="389" y="529.5948">C# == Py || C# == C++ || C++ == Py</text><text fill="#000000" font-family="sans-serif" font-size="11" lengthAdjust="spacingAndGlyphs" textLength="48" x="329" y="523.1833">any true</text><text fill="#000000" font-family="sans-serif" font-size="11" lengthAdjust="spacingAndGlyphs" textLength="44" x="625" y="523.1833">all false</text><rect fill="#FEFECE" filter="url(#fdwrnrxpba7re)" height="33.9688" rx="12.5" ry="12.5" style="stroke: #A80036; stroke-width: 1.5;" width="112" x="311" y="547.7813"/><text fill="#000000" font-family="sans-serif" font-size="12" lengthAdjust="spacingAndGlyphs" textLength="92" x="321" y="568.9199">This is Warning</text><ellipse cx="367" cy="627.75" fill="#FFFFFF" filter="url(#fdwrnrxpba7re)" rx="11" ry="11" style="stroke: #000000; stroke-width: 1.0;"/><ellipse cx="367" cy="627.75" fill="#000000" rx="6" ry="6" style="stroke: #7F7F7F; stroke-width: 1.0;"/><rect fill="#FEFECE" filter="url(#fdwrnrxpba7re)" height="33.9688" rx="12.5" ry="12.5" style="stroke: #A80036; stroke-width: 1.5;" width="101" x="584.5" y="547.7813"/><text fill="#000000" font-family="sans-serif" font-size="12" lengthAdjust="spacingAndGlyphs" textLength="81" x="594.5" y="568.9199">This is Failure</text><ellipse cx="635" cy="626.75" fill="#FFFFFF" filter="url(#fdwrnrxpba7re)" rx="10" ry="10" style="stroke: #000000; stroke-width: 1.5;"/><line style="stroke: #000000; stroke-width: 2.5;" x1="628.8128" x2="641.1872" y1="620.5628" y2="632.9372"/><line style="stroke: #000000; stroke-width: 2.5;" x1="641.1872" x2="628.8128" y1="620.5628" y2="632.9372"/><line style="stroke: #A80036; stroke-width: 1.5;" x1="363.5" x2="363.5" y1="30" y2="50"/><polygon fill="#A80036" points="359.5,40,363.5,50,367.5,40,363.5,44" style="stroke: #A80036; stroke-width: 1.0;"/><line style="stroke: #A80036; stroke-width: 1.5;" x1="363.5" x2="363.5" y1="83.9688" y2="103.9688"/><polygon fill="#A80036" points="359.5,93.9688,363.5,103.9688,367.5,93.9688,363.5,97.9688" style="stroke: #A80036; stroke-width: 1.0;"/><line style="stroke: #A80036; stroke-width: 1.5;" x1="126.5" x2="126.5" y1="217.9063" y2="237.9063"/><polygon fill="#A80036" points="122.5,227.9063,126.5,237.9063,130.5,227.9063,126.5,231.9063" style="stroke: #A80036; stroke-width: 1.0;"/><line style="stroke: #A80036; stroke-width: 1.5;" x1="126.5" x2="126.5" y1="271.875" y2="291.875"/><polygon fill="#A80036" points="122.5,281.875,126.5,291.875,130.5,281.875,126.5,285.875" style="stroke: #A80036; stroke-width: 1.0;"/><line style="stroke: #A80036; stroke-width: 1.5;" x1="126.5" x2="126.5" y1="325.8438" y2="345.8438"/><polygon fill="#A80036" points="122.5,335.8438,126.5,345.8438,130.5,335.8438,126.5,339.8438" style="stroke: #A80036; stroke-width: 1.0;"/><line style="stroke: #A80036; stroke-width: 1.5;" x1="363.5" x2="363.5" y1="217.9063" y2="237.9063"/><polygon fill="#A80036" points="359.5,227.9063,363.5,237.9063,367.5,227.9063,363.5,231.9063" style="stroke: #A80036; stroke-width: 1.0;"/><line style="stroke: #A80036; stroke-width: 1.5;" x1="363.5" x2="363.5" y1="271.875" y2="291.875"/><polygon fill="#A80036" points="359.5,281.875,363.5,291.875,367.5,281.875,363.5,285.875" style="stroke: #A80036; stroke-width: 1.0;"/><line style="stroke: #A80036; stroke-width: 1.5;" x1="363.5" x2="363.5" y1="325.8438" y2="345.8438"/><polygon fill="#A80036" points="359.5,335.8438,363.5,345.8438,367.5,335.8438,363.5,339.8438" style="stroke: #A80036; stroke-width: 1.0;"/><line style="stroke: #A80036; stroke-width: 1.5;" x1="600.5" x2="600.5" y1="217.9063" y2="237.9063"/><polygon fill="#A80036" points="596.5,227.9063,600.5,237.9063,604.5,227.9063,600.5,231.9063" style="stroke: #A80036; stroke-width: 1.0;"/><line style="stroke: #A80036; stroke-width: 1.5;" x1="600.5" x2="600.5" y1="271.875" y2="291.875"/><polygon fill="#A80036" points="596.5,281.875,600.5,291.875,604.5,281.875,600.5,285.875" style="stroke: #A80036; stroke-width: 1.0;"/><line style="stroke: #A80036; stroke-width: 1.5;" x1="600.5" x2="600.5" y1="325.8438" y2="345.8438"/><polygon fill="#A80036" points="596.5,335.8438,600.5,345.8438,604.5,335.8438,600.5,339.8438" style="stroke: #A80036; stroke-width: 1.0;"/><line style="stroke: #A80036; stroke-width: 1.5;" x1="126.5" x2="126.5" y1="163.9375" y2="183.9375"/><polygon fill="#A80036" points="122.5,173.9375,126.5,183.9375,130.5,173.9375,126.5,177.9375" style="stroke: #A80036; stroke-width: 1.0;"/><line style="stroke: #A80036; stroke-width: 1.5;" x1="363.5" x2="363.5" y1="163.9375" y2="183.9375"/><polygon fill="#A80036" points="359.5,173.9375,363.5,183.9375,367.5,173.9375,363.5,177.9375" style="stroke: #A80036; stroke-width: 1.0;"/><line style="stroke: #A80036; stroke-width: 1.5;" x1="600.5" x2="600.5" y1="163.9375" y2="183.9375"/><polygon fill="#A80036" points="596.5,173.9375,600.5,183.9375,604.5,173.9375,600.5,177.9375" style="stroke: #A80036; stroke-width: 1.0;"/><line style="stroke: #A80036; stroke-width: 1.5;" x1="126.5" x2="126.5" y1="379.8125" y2="399.8125"/><polygon fill="#A80036" points="122.5,389.8125,126.5,399.8125,130.5,389.8125,126.5,393.8125" style="stroke: #A80036; stroke-width: 1.0;"/><line style="stroke: #A80036; stroke-width: 1.5;" x1="363.5" x2="363.5" y1="379.8125" y2="399.8125"/><polygon fill="#A80036" points="359.5,389.8125,363.5,399.8125,367.5,389.8125,363.5,393.8125" style="stroke: #A80036; stroke-width: 1.0;"/><line style="stroke: #A80036; stroke-width: 1.5;" x1="600.5" x2="600.5" y1="379.8125" y2="399.8125"/><polygon fill="#A80036" points="596.5,389.8125,600.5,399.8125,604.5,389.8125,600.5,393.8125" style="stroke: #A80036; stroke-width: 1.0;"/><line style="stroke: #A80036; stroke-width: 1.5;" x1="363.5" x2="363.5" y1="137.9375" y2="157.9375"/><polygon fill="#A80036" points="359.5,147.9375,363.5,157.9375,367.5,147.9375,363.5,151.9375" style="stroke: #A80036; stroke-width: 1.0;"/><line style="stroke: #A80036; stroke-width: 1.5;" x1="363.5" x2="363.5" y1="405.8125" y2="425.8125"/><polygon fill="#A80036" points="359.5,415.8125,363.5,425.8125,367.5,415.8125,363.5,419.8125" style="stroke: #A80036; stroke-width: 1.0;"/><line style="stroke: #A80036; stroke-width: 1.5;" x1="226" x2="226" y1="547.75" y2="582.75"/><polygon fill="#A80036" points="222,572.75,226,582.75,230,572.75,226,576.75" style="stroke: #A80036; stroke-width: 1.0;"/><line style="stroke: #A80036; stroke-width: 1.5;" x1="367" x2="367" y1="581.75" y2="616.75"/><polygon fill="#A80036" points="363,606.75,367,616.75,371,606.75,367,610.75" style="stroke: #A80036; stroke-width: 1.0;"/><line style="stroke: #A80036; stroke-width: 1.5;" x1="635" x2="635" y1="581.75" y2="616.75"/><polygon fill="#A80036" points="631,606.75,635,616.75,639,606.75,635,610.75" style="stroke: #A80036; stroke-width: 1.0;"/><line style="stroke: #A80036; stroke-width: 1.5;" x1="377" x2="367" y1="525.7813" y2="525.7813"/><line style="stroke: #A80036; stroke-width: 1.5;" x1="367" x2="367" y1="525.7813" y2="547.7813"/><polygon fill="#A80036" points="363,537.7813,367,547.7813,371,537.7813,367,541.7813" style="stroke: #A80036; stroke-width: 1.0;"/><line style="stroke: #A80036; stroke-width: 1.5;" x1="625" x2="635" y1="525.7813" y2="525.7813"/><line style="stroke: #A80036; stroke-width: 1.5;" x1="635" x2="635" y1="525.7813" y2="547.7813"/><polygon fill="#A80036" points="631,537.7813,635,547.7813,639,537.7813,635,541.7813" style="stroke: #A80036; stroke-width: 1.0;"/><line style="stroke: #A80036; stroke-width: 1.5;" x1="249.5" x2="226" y1="491.7813" y2="491.7813"/><line style="stroke: #A80036; stroke-width: 1.5;" x1="226" x2="226" y1="491.7813" y2="513.7813"/><polygon fill="#A80036" points="222,503.7813,226,513.7813,230,503.7813,226,507.7813" style="stroke: #A80036; stroke-width: 1.0;"/><line style="stroke: #A80036; stroke-width: 1.5;" x1="477.5" x2="501" y1="491.7813" y2="491.7813"/><line style="stroke: #A80036; stroke-width: 1.5;" x1="501" x2="501" y1="491.7813" y2="513.7813"/><polygon fill="#A80036" points="497,503.7813,501,513.7813,505,503.7813,501,507.7813" style="stroke: #A80036; stroke-width: 1.0;"/><line style="stroke: #A80036; stroke-width: 1.5;" x1="363.5" x2="363.5" y1="459.7813" y2="479.7813"/><polygon fill="#A80036" points="359.5,469.7813,363.5,479.7813,367.5,469.7813,363.5,473.7813" style="stroke: #A80036; stroke-width: 1.0;"/><!--MD5=[92e6a6155bba1312ffce940d24bd0e9f]
@startuml

start
:Generate **n * 4** random doubles;
:Write them to *.tsv>
fork
:Run C# code;
:Read *.tsv<
:Calculate and catch exceptions;
:Write C#.log.csv>
fork again
:Run C++ code;
:Read *.tsv<
:Calculate and catch exceptions;
:Write C++.log.csv>
fork again
:Run Python code;
:Read *.tsv<
:Calculate and catch exceptions;
:Write Python.log.csv>
endfork
:Read Python, C#, C++ Results<
if (C# Results == Py Res == C++ Res) then (true)
    :This is Success;
    stop
else (false)
    if (C# == Py || C# == C++ || C++ == Py) then (any true)
        :This is Warning;
        stop
    else (all false)
        :This is Failure;
        end
    endif
endif

@enduml

PlantUML version 1.2020.03beta6(Unknown compile time)
(GPL source distribution)
Java Runtime: OpenJDK Runtime Environment
JVM: OpenJDK 64-Bit Server VM
Java Version: 11.0.6+8-b765.25
Operating System: Linux
Default Encoding: UTF-8
Language: en
Country: US
--></g></svg>